<mxfile host="app.diagrams.net" modified="2021-01-05T02:58:24.580Z" agent="5.0 (Macintosh; Intel Mac OS X 10_14_6) AppleWebKit/537.36 (KHTML, like Gecko) Chrome/87.0.4280.88 Safari/537.36" etag="Lg7piBfOvyzQRBrihuJV" version="14.1.4" type="github">
  <diagram id="RjBqsqhj3sioLkczXOe3" name="Page-1">
    <mxGraphModel dx="1186" dy="1702" grid="1" gridSize="10" guides="1" tooltips="1" connect="1" arrows="1" fold="1" page="1" pageScale="1" pageWidth="827" pageHeight="1169" math="0" shadow="0">
      <root>
        <mxCell id="0" />
        <mxCell id="1" parent="0" />
        <mxCell id="zmc4Z-w7jA_BF66H5ybC-30" value="" style="rounded=0;whiteSpace=wrap;html=1;comic=1;" vertex="1" parent="1">
          <mxGeometry x="70" y="-30" width="1040" height="300" as="geometry" />
        </mxCell>
        <mxCell id="zmc4Z-w7jA_BF66H5ybC-29" value="" style="endArrow=none;dashed=1;html=1;dashPattern=1 3;strokeWidth=2;" edge="1" parent="1">
          <mxGeometry width="50" height="50" relative="1" as="geometry">
            <mxPoint x="619.5" y="240" as="sourcePoint" />
            <mxPoint x="619.5" y="10" as="targetPoint" />
          </mxGeometry>
        </mxCell>
        <mxCell id="46z4oTIVy4qsNz0aYybG-44" value="" style="shape=table;html=1;whiteSpace=wrap;startSize=0;container=1;collapsible=0;childLayout=tableLayout;comic=1;fillColor=#fff2cc;strokeColor=#d6b656;" parent="1" vertex="1">
          <mxGeometry x="310" y="300" width="500" height="460" as="geometry" />
        </mxCell>
        <mxCell id="46z4oTIVy4qsNz0aYybG-45" value="" style="shape=partialRectangle;html=1;whiteSpace=wrap;collapsible=0;dropTarget=0;pointerEvents=0;fillColor=none;top=0;left=0;bottom=0;right=0;points=[[0,0.5],[1,0.5]];portConstraint=eastwest;" parent="46z4oTIVy4qsNz0aYybG-44" vertex="1">
          <mxGeometry width="500" height="46" as="geometry" />
        </mxCell>
        <mxCell id="46z4oTIVy4qsNz0aYybG-46" value="&lt;b&gt;请求方法&lt;/b&gt;" style="shape=partialRectangle;html=1;whiteSpace=wrap;connectable=0;overflow=hidden;fillColor=none;top=0;left=0;bottom=0;right=0;" parent="46z4oTIVy4qsNz0aYybG-45" vertex="1">
          <mxGeometry width="105" height="46" as="geometry" />
        </mxCell>
        <mxCell id="46z4oTIVy4qsNz0aYybG-47" value="&lt;b&gt;描述&lt;/b&gt;" style="shape=partialRectangle;html=1;whiteSpace=wrap;connectable=0;overflow=hidden;fillColor=none;top=0;left=0;bottom=0;right=0;" parent="46z4oTIVy4qsNz0aYybG-45" vertex="1">
          <mxGeometry x="105" width="395" height="46" as="geometry" />
        </mxCell>
        <mxCell id="46z4oTIVy4qsNz0aYybG-48" value="" style="shape=partialRectangle;html=1;whiteSpace=wrap;collapsible=0;dropTarget=0;pointerEvents=0;fillColor=none;top=0;left=0;bottom=0;right=0;points=[[0,0.5],[1,0.5]];portConstraint=eastwest;" parent="46z4oTIVy4qsNz0aYybG-44" vertex="1">
          <mxGeometry y="46" width="500" height="46" as="geometry" />
        </mxCell>
        <mxCell id="46z4oTIVy4qsNz0aYybG-49" value="GET" style="shape=partialRectangle;html=1;whiteSpace=wrap;connectable=0;overflow=hidden;fillColor=none;top=0;left=0;bottom=0;right=0;" parent="46z4oTIVy4qsNz0aYybG-48" vertex="1">
          <mxGeometry width="105" height="46" as="geometry" />
        </mxCell>
        <mxCell id="46z4oTIVy4qsNz0aYybG-50" value="从服务器获取资源" style="shape=partialRectangle;html=1;whiteSpace=wrap;connectable=0;overflow=hidden;fillColor=none;top=0;left=0;bottom=0;right=0;" parent="46z4oTIVy4qsNz0aYybG-48" vertex="1">
          <mxGeometry x="105" width="395" height="46" as="geometry" />
        </mxCell>
        <mxCell id="46z4oTIVy4qsNz0aYybG-51" value="" style="shape=partialRectangle;html=1;whiteSpace=wrap;collapsible=0;dropTarget=0;pointerEvents=0;fillColor=none;top=0;left=0;bottom=0;right=0;points=[[0,0.5],[1,0.5]];portConstraint=eastwest;" parent="46z4oTIVy4qsNz0aYybG-44" vertex="1">
          <mxGeometry y="92" width="500" height="46" as="geometry" />
        </mxCell>
        <mxCell id="46z4oTIVy4qsNz0aYybG-52" value="POST" style="shape=partialRectangle;html=1;whiteSpace=wrap;connectable=0;overflow=hidden;fillColor=none;top=0;left=0;bottom=0;right=0;" parent="46z4oTIVy4qsNz0aYybG-51" vertex="1">
          <mxGeometry width="105" height="46" as="geometry" />
        </mxCell>
        <mxCell id="46z4oTIVy4qsNz0aYybG-53" value="向指定资源提交数据进行处理请求（例如提交表单或者上传文件）。数据被包含在请求体中。可能会创建新的资源/或修改已有资源。" style="shape=partialRectangle;html=1;whiteSpace=wrap;connectable=0;overflow=hidden;fillColor=none;top=0;left=0;bottom=0;right=0;" parent="46z4oTIVy4qsNz0aYybG-51" vertex="1">
          <mxGeometry x="105" width="395" height="46" as="geometry" />
        </mxCell>
        <mxCell id="46z4oTIVy4qsNz0aYybG-54" value="" style="shape=partialRectangle;html=1;whiteSpace=wrap;collapsible=0;dropTarget=0;pointerEvents=0;fillColor=none;top=0;left=0;bottom=0;right=0;points=[[0,0.5],[1,0.5]];portConstraint=eastwest;" parent="46z4oTIVy4qsNz0aYybG-44" vertex="1">
          <mxGeometry y="138" width="500" height="46" as="geometry" />
        </mxCell>
        <mxCell id="46z4oTIVy4qsNz0aYybG-55" value="HEAD" style="shape=partialRectangle;html=1;whiteSpace=wrap;connectable=0;overflow=hidden;fillColor=none;top=0;left=0;bottom=0;right=0;" parent="46z4oTIVy4qsNz0aYybG-54" vertex="1">
          <mxGeometry width="105" height="46" as="geometry" />
        </mxCell>
        <mxCell id="46z4oTIVy4qsNz0aYybG-56" value="类似GET请求，但是返回的响应中，没有具体内容，用于获取报头" style="shape=partialRectangle;html=1;whiteSpace=wrap;connectable=0;overflow=hidden;fillColor=none;top=0;left=0;bottom=0;right=0;" parent="46z4oTIVy4qsNz0aYybG-54" vertex="1">
          <mxGeometry x="105" width="395" height="46" as="geometry" />
        </mxCell>
        <mxCell id="46z4oTIVy4qsNz0aYybG-57" value="" style="shape=partialRectangle;html=1;whiteSpace=wrap;collapsible=0;dropTarget=0;pointerEvents=0;fillColor=none;top=0;left=0;bottom=0;right=0;points=[[0,0.5],[1,0.5]];portConstraint=eastwest;" parent="46z4oTIVy4qsNz0aYybG-44" vertex="1">
          <mxGeometry y="184" width="500" height="46" as="geometry" />
        </mxCell>
        <mxCell id="46z4oTIVy4qsNz0aYybG-58" value="PUT" style="shape=partialRectangle;html=1;whiteSpace=wrap;connectable=0;overflow=hidden;fillColor=none;top=0;left=0;bottom=0;right=0;" parent="46z4oTIVy4qsNz0aYybG-57" vertex="1">
          <mxGeometry width="105" height="46" as="geometry" />
        </mxCell>
        <mxCell id="46z4oTIVy4qsNz0aYybG-59" value="从客户端向服务器传送的数据取代指定的资源的内容。" style="shape=partialRectangle;html=1;whiteSpace=wrap;connectable=0;overflow=hidden;fillColor=none;top=0;left=0;bottom=0;right=0;" parent="46z4oTIVy4qsNz0aYybG-57" vertex="1">
          <mxGeometry x="105" width="395" height="46" as="geometry" />
        </mxCell>
        <mxCell id="46z4oTIVy4qsNz0aYybG-60" value="" style="shape=partialRectangle;html=1;whiteSpace=wrap;collapsible=0;dropTarget=0;pointerEvents=0;fillColor=none;top=0;left=0;bottom=0;right=0;points=[[0,0.5],[1,0.5]];portConstraint=eastwest;" parent="46z4oTIVy4qsNz0aYybG-44" vertex="1">
          <mxGeometry y="230" width="500" height="46" as="geometry" />
        </mxCell>
        <mxCell id="46z4oTIVy4qsNz0aYybG-61" value="DELETE" style="shape=partialRectangle;html=1;whiteSpace=wrap;connectable=0;overflow=hidden;fillColor=none;top=0;left=0;bottom=0;right=0;" parent="46z4oTIVy4qsNz0aYybG-60" vertex="1">
          <mxGeometry width="105" height="46" as="geometry" />
        </mxCell>
        <mxCell id="46z4oTIVy4qsNz0aYybG-62" value="从服务器删除指定资源" style="shape=partialRectangle;html=1;whiteSpace=wrap;connectable=0;overflow=hidden;fillColor=none;top=0;left=0;bottom=0;right=0;" parent="46z4oTIVy4qsNz0aYybG-60" vertex="1">
          <mxGeometry x="105" width="395" height="46" as="geometry" />
        </mxCell>
        <mxCell id="46z4oTIVy4qsNz0aYybG-72" style="shape=partialRectangle;html=1;whiteSpace=wrap;collapsible=0;dropTarget=0;pointerEvents=0;fillColor=none;top=0;left=0;bottom=0;right=0;points=[[0,0.5],[1,0.5]];portConstraint=eastwest;" parent="46z4oTIVy4qsNz0aYybG-44" vertex="1">
          <mxGeometry y="276" width="500" height="46" as="geometry" />
        </mxCell>
        <mxCell id="46z4oTIVy4qsNz0aYybG-73" value="CONNECT" style="shape=partialRectangle;html=1;whiteSpace=wrap;connectable=0;overflow=hidden;fillColor=none;top=0;left=0;bottom=0;right=0;" parent="46z4oTIVy4qsNz0aYybG-72" vertex="1">
          <mxGeometry width="105" height="46" as="geometry" />
        </mxCell>
        <mxCell id="46z4oTIVy4qsNz0aYybG-74" value="HTTP/1.1 协议中预留给能够将连接改为管道方式的代理服务器。" style="shape=partialRectangle;html=1;whiteSpace=wrap;connectable=0;overflow=hidden;fillColor=none;top=0;left=0;bottom=0;right=0;" parent="46z4oTIVy4qsNz0aYybG-72" vertex="1">
          <mxGeometry x="105" width="395" height="46" as="geometry" />
        </mxCell>
        <mxCell id="46z4oTIVy4qsNz0aYybG-69" style="shape=partialRectangle;html=1;whiteSpace=wrap;collapsible=0;dropTarget=0;pointerEvents=0;fillColor=none;top=0;left=0;bottom=0;right=0;points=[[0,0.5],[1,0.5]];portConstraint=eastwest;" parent="46z4oTIVy4qsNz0aYybG-44" vertex="1">
          <mxGeometry y="322" width="500" height="46" as="geometry" />
        </mxCell>
        <mxCell id="46z4oTIVy4qsNz0aYybG-70" value="OPTIONS" style="shape=partialRectangle;html=1;whiteSpace=wrap;connectable=0;overflow=hidden;fillColor=none;top=0;left=0;bottom=0;right=0;" parent="46z4oTIVy4qsNz0aYybG-69" vertex="1">
          <mxGeometry width="105" height="46" as="geometry" />
        </mxCell>
        <mxCell id="46z4oTIVy4qsNz0aYybG-71" value="允许客户端查看服务器的性能" style="shape=partialRectangle;html=1;whiteSpace=wrap;connectable=0;overflow=hidden;fillColor=none;top=0;left=0;bottom=0;right=0;" parent="46z4oTIVy4qsNz0aYybG-69" vertex="1">
          <mxGeometry x="105" width="395" height="46" as="geometry" />
        </mxCell>
        <mxCell id="46z4oTIVy4qsNz0aYybG-66" style="shape=partialRectangle;html=1;whiteSpace=wrap;collapsible=0;dropTarget=0;pointerEvents=0;fillColor=none;top=0;left=0;bottom=0;right=0;points=[[0,0.5],[1,0.5]];portConstraint=eastwest;" parent="46z4oTIVy4qsNz0aYybG-44" vertex="1">
          <mxGeometry y="368" width="500" height="46" as="geometry" />
        </mxCell>
        <mxCell id="46z4oTIVy4qsNz0aYybG-67" value="TRACE" style="shape=partialRectangle;html=1;whiteSpace=wrap;connectable=0;overflow=hidden;fillColor=none;top=0;left=0;bottom=0;right=0;" parent="46z4oTIVy4qsNz0aYybG-66" vertex="1">
          <mxGeometry width="105" height="46" as="geometry" />
        </mxCell>
        <mxCell id="46z4oTIVy4qsNz0aYybG-68" value="回显服务器收到的请求，主要用于测试或诊断。" style="shape=partialRectangle;html=1;whiteSpace=wrap;connectable=0;overflow=hidden;fillColor=none;top=0;left=0;bottom=0;right=0;" parent="46z4oTIVy4qsNz0aYybG-66" vertex="1">
          <mxGeometry x="105" width="395" height="46" as="geometry" />
        </mxCell>
        <mxCell id="46z4oTIVy4qsNz0aYybG-63" style="shape=partialRectangle;html=1;whiteSpace=wrap;collapsible=0;dropTarget=0;pointerEvents=0;fillColor=none;top=0;left=0;bottom=0;right=0;points=[[0,0.5],[1,0.5]];portConstraint=eastwest;" parent="46z4oTIVy4qsNz0aYybG-44" vertex="1">
          <mxGeometry y="414" width="500" height="46" as="geometry" />
        </mxCell>
        <mxCell id="46z4oTIVy4qsNz0aYybG-64" value="PATCH" style="shape=partialRectangle;html=1;whiteSpace=wrap;connectable=0;overflow=hidden;fillColor=none;top=0;left=0;bottom=0;right=0;" parent="46z4oTIVy4qsNz0aYybG-63" vertex="1">
          <mxGeometry width="105" height="46" as="geometry" />
        </mxCell>
        <mxCell id="46z4oTIVy4qsNz0aYybG-65" value="是对 PUT 方法的补充，用来对已知资源进行局部更新 。" style="shape=partialRectangle;html=1;whiteSpace=wrap;connectable=0;overflow=hidden;fillColor=none;top=0;left=0;bottom=0;right=0;" parent="46z4oTIVy4qsNz0aYybG-63" vertex="1">
          <mxGeometry x="105" width="395" height="46" as="geometry" />
        </mxCell>
        <mxCell id="46z4oTIVy4qsNz0aYybG-75" value="" style="shape=table;html=1;whiteSpace=wrap;startSize=0;container=1;collapsible=0;childLayout=tableLayout;comic=1;fillColor=#fff2cc;strokeColor=#d6b656;" parent="1" vertex="1">
          <mxGeometry x="240" y="820" width="500" height="276" as="geometry" />
        </mxCell>
        <mxCell id="46z4oTIVy4qsNz0aYybG-76" value="" style="shape=partialRectangle;html=1;whiteSpace=wrap;collapsible=0;dropTarget=0;pointerEvents=0;fillColor=none;top=0;left=0;bottom=0;right=0;points=[[0,0.5],[1,0.5]];portConstraint=eastwest;" parent="46z4oTIVy4qsNz0aYybG-75" vertex="1">
          <mxGeometry width="500" height="46" as="geometry" />
        </mxCell>
        <mxCell id="46z4oTIVy4qsNz0aYybG-77" value="&lt;b&gt;浏览器&lt;/b&gt;" style="shape=partialRectangle;html=1;whiteSpace=wrap;connectable=0;overflow=hidden;fillColor=none;top=0;left=0;bottom=0;right=0;" parent="46z4oTIVy4qsNz0aYybG-76" vertex="1">
          <mxGeometry width="105" height="46" as="geometry" />
        </mxCell>
        <mxCell id="46z4oTIVy4qsNz0aYybG-78" value="&lt;b&gt;限制大小（字符）&lt;/b&gt;" style="shape=partialRectangle;html=1;whiteSpace=wrap;connectable=0;overflow=hidden;fillColor=none;top=0;left=0;bottom=0;right=0;" parent="46z4oTIVy4qsNz0aYybG-76" vertex="1">
          <mxGeometry x="105" width="395" height="46" as="geometry" />
        </mxCell>
        <mxCell id="46z4oTIVy4qsNz0aYybG-79" value="" style="shape=partialRectangle;html=1;whiteSpace=wrap;collapsible=0;dropTarget=0;pointerEvents=0;fillColor=none;top=0;left=0;bottom=0;right=0;points=[[0,0.5],[1,0.5]];portConstraint=eastwest;" parent="46z4oTIVy4qsNz0aYybG-75" vertex="1">
          <mxGeometry y="46" width="500" height="46" as="geometry" />
        </mxCell>
        <mxCell id="46z4oTIVy4qsNz0aYybG-80" value="IE" style="shape=partialRectangle;html=1;whiteSpace=wrap;connectable=0;overflow=hidden;fillColor=none;top=0;left=0;bottom=0;right=0;" parent="46z4oTIVy4qsNz0aYybG-79" vertex="1">
          <mxGeometry width="105" height="46" as="geometry" />
        </mxCell>
        <mxCell id="46z4oTIVy4qsNz0aYybG-81" value="2803" style="shape=partialRectangle;html=1;whiteSpace=wrap;connectable=0;overflow=hidden;fillColor=none;top=0;left=0;bottom=0;right=0;" parent="46z4oTIVy4qsNz0aYybG-79" vertex="1">
          <mxGeometry x="105" width="395" height="46" as="geometry" />
        </mxCell>
        <mxCell id="46z4oTIVy4qsNz0aYybG-82" value="" style="shape=partialRectangle;html=1;whiteSpace=wrap;collapsible=0;dropTarget=0;pointerEvents=0;fillColor=none;top=0;left=0;bottom=0;right=0;points=[[0,0.5],[1,0.5]];portConstraint=eastwest;" parent="46z4oTIVy4qsNz0aYybG-75" vertex="1">
          <mxGeometry y="92" width="500" height="46" as="geometry" />
        </mxCell>
        <mxCell id="46z4oTIVy4qsNz0aYybG-83" value="Firefox" style="shape=partialRectangle;html=1;whiteSpace=wrap;connectable=0;overflow=hidden;fillColor=none;top=0;left=0;bottom=0;right=0;" parent="46z4oTIVy4qsNz0aYybG-82" vertex="1">
          <mxGeometry width="105" height="46" as="geometry" />
        </mxCell>
        <mxCell id="46z4oTIVy4qsNz0aYybG-84" value="65536" style="shape=partialRectangle;html=1;whiteSpace=wrap;connectable=0;overflow=hidden;fillColor=none;top=0;left=0;bottom=0;right=0;" parent="46z4oTIVy4qsNz0aYybG-82" vertex="1">
          <mxGeometry x="105" width="395" height="46" as="geometry" />
        </mxCell>
        <mxCell id="46z4oTIVy4qsNz0aYybG-85" value="" style="shape=partialRectangle;html=1;whiteSpace=wrap;collapsible=0;dropTarget=0;pointerEvents=0;fillColor=none;top=0;left=0;bottom=0;right=0;points=[[0,0.5],[1,0.5]];portConstraint=eastwest;" parent="46z4oTIVy4qsNz0aYybG-75" vertex="1">
          <mxGeometry y="138" width="500" height="46" as="geometry" />
        </mxCell>
        <mxCell id="46z4oTIVy4qsNz0aYybG-86" value="Chrome" style="shape=partialRectangle;html=1;whiteSpace=wrap;connectable=0;overflow=hidden;fillColor=none;top=0;left=0;bottom=0;right=0;" parent="46z4oTIVy4qsNz0aYybG-85" vertex="1">
          <mxGeometry width="105" height="46" as="geometry" />
        </mxCell>
        <mxCell id="46z4oTIVy4qsNz0aYybG-87" value="8182" style="shape=partialRectangle;html=1;whiteSpace=wrap;connectable=0;overflow=hidden;fillColor=none;top=0;left=0;bottom=0;right=0;" parent="46z4oTIVy4qsNz0aYybG-85" vertex="1">
          <mxGeometry x="105" width="395" height="46" as="geometry" />
        </mxCell>
        <mxCell id="46z4oTIVy4qsNz0aYybG-88" value="" style="shape=partialRectangle;html=1;whiteSpace=wrap;collapsible=0;dropTarget=0;pointerEvents=0;fillColor=none;top=0;left=0;bottom=0;right=0;points=[[0,0.5],[1,0.5]];portConstraint=eastwest;" parent="46z4oTIVy4qsNz0aYybG-75" vertex="1">
          <mxGeometry y="184" width="500" height="46" as="geometry" />
        </mxCell>
        <mxCell id="46z4oTIVy4qsNz0aYybG-89" value="Safari" style="shape=partialRectangle;html=1;whiteSpace=wrap;connectable=0;overflow=hidden;fillColor=none;top=0;left=0;bottom=0;right=0;" parent="46z4oTIVy4qsNz0aYybG-88" vertex="1">
          <mxGeometry width="105" height="46" as="geometry" />
        </mxCell>
        <mxCell id="46z4oTIVy4qsNz0aYybG-90" value="80000" style="shape=partialRectangle;html=1;whiteSpace=wrap;connectable=0;overflow=hidden;fillColor=none;top=0;left=0;bottom=0;right=0;" parent="46z4oTIVy4qsNz0aYybG-88" vertex="1">
          <mxGeometry x="105" width="395" height="46" as="geometry" />
        </mxCell>
        <mxCell id="46z4oTIVy4qsNz0aYybG-94" style="shape=partialRectangle;html=1;whiteSpace=wrap;collapsible=0;dropTarget=0;pointerEvents=0;fillColor=none;top=0;left=0;bottom=0;right=0;points=[[0,0.5],[1,0.5]];portConstraint=eastwest;" parent="46z4oTIVy4qsNz0aYybG-75" vertex="1">
          <mxGeometry y="230" width="500" height="46" as="geometry" />
        </mxCell>
        <mxCell id="46z4oTIVy4qsNz0aYybG-95" value="Opera" style="shape=partialRectangle;html=1;whiteSpace=wrap;connectable=0;overflow=hidden;fillColor=none;top=0;left=0;bottom=0;right=0;" parent="46z4oTIVy4qsNz0aYybG-94" vertex="1">
          <mxGeometry width="105" height="46" as="geometry" />
        </mxCell>
        <mxCell id="46z4oTIVy4qsNz0aYybG-96" value="190000" style="shape=partialRectangle;html=1;whiteSpace=wrap;connectable=0;overflow=hidden;fillColor=none;top=0;left=0;bottom=0;right=0;" parent="46z4oTIVy4qsNz0aYybG-94" vertex="1">
          <mxGeometry x="105" width="395" height="46" as="geometry" />
        </mxCell>
        <mxCell id="zmc4Z-w7jA_BF66H5ybC-12" value="请求" style="edgeStyle=orthogonalEdgeStyle;rounded=0;orthogonalLoop=1;jettySize=auto;html=1;entryX=0;entryY=0.357;entryDx=0;entryDy=0;entryPerimeter=0;" edge="1" parent="1" target="zmc4Z-w7jA_BF66H5ybC-5">
          <mxGeometry x="0.0667" y="3" relative="1" as="geometry">
            <mxPoint x="250" y="120" as="sourcePoint" />
            <Array as="points" />
            <mxPoint y="1" as="offset" />
          </mxGeometry>
        </mxCell>
        <mxCell id="zmc4Z-w7jA_BF66H5ybC-4" value="&lt;b&gt;前端&lt;br&gt;（APP/H5/小程序/PC web）&lt;br&gt;&lt;/b&gt;" style="rounded=1;whiteSpace=wrap;html=1;comic=1;fillColor=#fff2cc;strokeColor=#d6b656;" vertex="1" parent="1">
          <mxGeometry x="90" y="100" width="160" height="60" as="geometry" />
        </mxCell>
        <mxCell id="zmc4Z-w7jA_BF66H5ybC-13" value="响应" style="edgeStyle=orthogonalEdgeStyle;rounded=0;orthogonalLoop=1;jettySize=auto;html=1;" edge="1" parent="1" source="zmc4Z-w7jA_BF66H5ybC-5">
          <mxGeometry relative="1" as="geometry">
            <mxPoint x="250" y="140" as="targetPoint" />
            <Array as="points">
              <mxPoint x="250" y="140" />
            </Array>
          </mxGeometry>
        </mxCell>
        <mxCell id="zmc4Z-w7jA_BF66H5ybC-15" style="edgeStyle=orthogonalEdgeStyle;rounded=0;orthogonalLoop=1;jettySize=auto;html=1;entryX=0;entryY=0.5;entryDx=0;entryDy=0;entryPerimeter=0;" edge="1" parent="1" source="zmc4Z-w7jA_BF66H5ybC-5">
          <mxGeometry relative="1" as="geometry">
            <mxPoint x="580" y="130" as="targetPoint" />
          </mxGeometry>
        </mxCell>
        <mxCell id="zmc4Z-w7jA_BF66H5ybC-5" value="&lt;b&gt;搜索后端&lt;/b&gt;" style="rounded=1;whiteSpace=wrap;html=1;comic=1;fillColor=#fff2cc;strokeColor=#d6b656;" vertex="1" parent="1">
          <mxGeometry x="360" y="95" width="120" height="70" as="geometry" />
        </mxCell>
        <mxCell id="zmc4Z-w7jA_BF66H5ybC-17" style="edgeStyle=orthogonalEdgeStyle;rounded=0;orthogonalLoop=1;jettySize=auto;html=1;" edge="1" parent="1">
          <mxGeometry relative="1" as="geometry">
            <mxPoint x="480" y="130" as="targetPoint" />
            <mxPoint x="580" y="130" as="sourcePoint" />
          </mxGeometry>
        </mxCell>
        <mxCell id="zmc4Z-w7jA_BF66H5ybC-18" value="查询数据" style="edgeLabel;html=1;align=center;verticalAlign=middle;resizable=0;points=[];" vertex="1" connectable="0" parent="zmc4Z-w7jA_BF66H5ybC-17">
          <mxGeometry x="0.24" y="5" relative="1" as="geometry">
            <mxPoint x="12" y="-5" as="offset" />
          </mxGeometry>
        </mxCell>
        <mxCell id="zmc4Z-w7jA_BF66H5ybC-20" value="ES&lt;br&gt;搜索引擎" style="shape=datastore;whiteSpace=wrap;html=1;comic=0;fillColor=#f8cecc;strokeColor=#b85450;treeMoving=1;" vertex="1" parent="1">
          <mxGeometry x="580" y="90" width="80" height="80" as="geometry" />
        </mxCell>
        <mxCell id="zmc4Z-w7jA_BF66H5ybC-33" style="edgeStyle=orthogonalEdgeStyle;rounded=0;orthogonalLoop=1;jettySize=auto;html=1;entryX=1;entryY=0.5;entryDx=0;entryDy=0;" edge="1" parent="1" source="zmc4Z-w7jA_BF66H5ybC-21" target="zmc4Z-w7jA_BF66H5ybC-22">
          <mxGeometry relative="1" as="geometry" />
        </mxCell>
        <mxCell id="zmc4Z-w7jA_BF66H5ybC-34" value="增删改查" style="edgeLabel;html=1;align=center;verticalAlign=middle;resizable=0;points=[];" vertex="1" connectable="0" parent="zmc4Z-w7jA_BF66H5ybC-33">
          <mxGeometry x="0.1667" y="2" relative="1" as="geometry">
            <mxPoint x="10" y="-2" as="offset" />
          </mxGeometry>
        </mxCell>
        <mxCell id="zmc4Z-w7jA_BF66H5ybC-21" value="MySQL数据库&lt;br&gt;（商品库）" style="shape=datastore;whiteSpace=wrap;html=1;comic=0;fillColor=#d5e8d4;strokeColor=#82b366;treeMoving=1;" vertex="1" parent="1">
          <mxGeometry x="950" y="87.5" width="140" height="80" as="geometry" />
        </mxCell>
        <mxCell id="zmc4Z-w7jA_BF66H5ybC-27" value="更新/写入索引" style="edgeStyle=orthogonalEdgeStyle;rounded=0;orthogonalLoop=1;jettySize=auto;html=1;entryX=1;entryY=0.5;entryDx=0;entryDy=0;" edge="1" parent="1" source="zmc4Z-w7jA_BF66H5ybC-22" target="zmc4Z-w7jA_BF66H5ybC-20">
          <mxGeometry relative="1" as="geometry" />
        </mxCell>
        <mxCell id="zmc4Z-w7jA_BF66H5ybC-22" value="&lt;b&gt;ES索引服务&lt;/b&gt;" style="rounded=1;whiteSpace=wrap;html=1;comic=1;fillColor=#fff2cc;strokeColor=#d6b656;" vertex="1" parent="1">
          <mxGeometry x="780" y="90" width="80" height="75" as="geometry" />
        </mxCell>
        <mxCell id="zmc4Z-w7jA_BF66H5ybC-31" value="&lt;b&gt;读数据&lt;/b&gt;" style="text;html=1;strokeColor=none;fillColor=none;align=center;verticalAlign=middle;whiteSpace=wrap;rounded=0;comic=1;" vertex="1" parent="1">
          <mxGeometry x="220" y="10" width="180" height="40" as="geometry" />
        </mxCell>
        <mxCell id="zmc4Z-w7jA_BF66H5ybC-32" value="&lt;b&gt;写数据&lt;/b&gt;" style="text;html=1;strokeColor=none;fillColor=none;align=center;verticalAlign=middle;whiteSpace=wrap;rounded=0;comic=1;" vertex="1" parent="1">
          <mxGeometry x="770" y="10" width="120" height="30" as="geometry" />
        </mxCell>
      </root>
    </mxGraphModel>
  </diagram>
</mxfile>
